<svg xmlns="http://www.w3.org/2000/svg" width="1000" height="285" viewBox="0 0 1000 285" role="img" aria-labelledby="title desc">
<title id="title">My work starts where the playbook ends.</title>
<desc id="desc">An editorial typographic signature. The final word steps beyond an interrupted margin.</desc>
<path d="M886 0V123M886 243V269" fill="none" stroke="#605B56" stroke-width="1" vector-effect="non-scaling-stroke"/>
<path fill="#F0EEE8" d="M35.91 88.86Q35.45 88.86 34.88 88.52Q34.31 88.18 34.09 87.04L16.87 17.15Q16.76 16.36 16.19 16.41Q15.62 16.47 15.62 17.27L13.34 80.2Q13.22 83.39 14.36 85.04Q15.5 86.69 18.35 87.15L19.84 87.38Q21.32 87.49 21.32 88.75Q21.32 90 19.61 90H3.31Q1.6 90 1.6 88.75Q1.6 87.49 3.08 87.38L4.56 87.15Q7.52 86.69 8.61 85.04Q9.69 83.39 9.8 80.2L12.08 15.44Q12.2 13.05 11.4 12.25Q10.6 11.45 7.98 11L5.36 10.54Q3.88 10.2 3.88 9.17Q3.88 7.92 5.59 7.92H19.27Q22.8 7.92 23.6 11.34L37.39 68.23Q37.62 69.02 38.13 69.02Q38.65 69.02 38.76 68.23L53.12 10.77Q53.81 7.92 56.77 7.92H70.22Q71.93 7.92 71.93 9.17Q71.93 10.2 70.45 10.54L67.83 11Q65.44 11.45 64.64 12.25Q63.84 13.05 63.95 15.44L66.23 82.48Q66.35 84.87 67.03 85.67Q67.72 86.47 70.11 86.92L72.73 87.38Q74.21 87.72 74.21 88.75Q74.21 90 72.5 90H51.87Q50.16 90 50.16 88.75Q50.16 87.72 51.64 87.38L54.26 86.92Q56.66 86.47 57.46 85.67Q58.25 84.87 58.14 82.48L56.2 17.27Q56.2 16.47 55.69 16.41Q55.18 16.36 54.95 17.04L37.62 87.04Q37.39 88.18 36.88 88.52Q36.37 88.86 35.91 88.86ZM82.54 113.37Q79.46 113.37 77.63 111.26Q75.81 109.15 75.81 106.42Q75.81 104.25 77.06 102.77Q78.32 101.29 80.48 101.29Q82.31 101.29 83.11 102.08Q83.9 102.88 84.25 103.91Q84.59 104.93 84.93 105.73Q85.27 106.53 86.3 106.53Q87.55 106.53 88.58 104.76Q89.6 103 91.43 97.3Q92.57 93.88 92.85 91.37Q93.14 88.86 92.74 86.01Q92.34 83.16 90.97 79.06L78.55 39.5Q77.75 36.76 77.01 35.96Q76.27 35.17 74.67 34.82L72.96 34.48Q71.48 34.14 71.48 33Q71.48 31.86 73.07 31.86H91.88Q93.48 31.86 93.48 33Q93.48 34.25 92 34.48L90.17 34.71Q87.44 35.05 86.7 36.02Q85.96 36.99 86.75 39.5L96.79 72.9Q97.13 74.04 97.87 74.04Q98.61 74.04 98.95 72.9L108.64 41.55Q109.55 38.47 109.16 36.93Q108.76 35.39 105.91 34.94L103.51 34.48Q102.03 34.14 102.03 33Q102.03 31.86 103.63 31.86H118.1Q119.7 31.86 119.7 33.11Q119.7 34.25 118.33 34.71L117.31 35.05Q115.6 35.62 114.46 37.1Q113.32 38.59 112.06 42.23L95.08 95.24Q92.57 103.22 90.57 107.1Q88.58 110.98 86.75 112.17Q84.93 113.37 82.54 113.37ZM159.49 91.03Q158 91.03 157.43 88.75L143.64 39.5Q142.84 36.76 142.1 35.96Q141.36 35.17 139.76 34.82L138.05 34.48Q136.57 34.14 136.57 33Q136.57 31.86 138.17 31.86H156.64Q158.23 31.86 158.23 33Q158.23 34.25 156.75 34.48L154.93 34.71Q152.19 35.05 151.51 36.02Q150.82 36.99 151.51 39.5L160.51 72.67Q160.85 73.81 161.6 73.81Q162.34 73.81 162.68 72.67L170.43 43.15Q170.66 42.23 170.72 41.32Q170.77 40.41 170.43 39.38Q169.63 36.65 168.89 35.91Q168.15 35.17 166.55 34.82L164.84 34.48Q163.36 34.14 163.36 33Q163.36 31.86 164.96 31.86H183.43Q185.02 31.86 185.02 33Q185.02 34.25 183.54 34.48L181.72 34.71Q178.98 35.05 178.41 36.02Q177.84 36.99 178.3 39.5L185.59 72.44Q185.82 73.58 186.56 73.58Q187.3 73.58 187.64 72.44L196.31 41.55Q197.22 38.47 196.82 36.93Q196.42 35.39 193.57 34.94L191.18 34.48Q189.7 34.14 189.7 33Q189.7 31.86 191.29 31.86H205.54Q207.14 31.86 207.14 33.11Q207.14 34.25 205.77 34.71L204.74 35.05Q203.03 35.62 201.78 37.1Q200.53 38.59 199.5 42.23L186.5 88.75Q185.93 91.03 184.34 91.03Q182.97 91.03 182.4 88.75L173.51 52.27Q173.17 51.01 172.43 50.95Q171.68 50.9 171.34 52.27L161.54 88.75Q160.97 91.03 159.49 91.03ZM228 91.03Q222.19 91.03 217.57 87.09Q212.95 83.16 210.22 76.32Q207.48 69.48 207.48 61.04Q207.48 52.61 210.22 45.88Q212.95 39.16 217.63 35.17Q222.3 31.18 228 31.18Q233.81 31.18 238.43 35.17Q243.05 39.16 245.78 45.88Q248.52 52.61 248.52 61.04Q248.52 69.48 245.84 76.32Q243.16 83.16 238.49 87.09Q233.81 91.03 228 91.03ZM228 88.18Q239.86 88.18 239.86 61.04Q239.86 34.03 228 34.03Q216.14 34.03 216.14 61.04Q216.14 88.18 228 88.18ZM268.93 39.16Q273.6 31.18 280.21 31.18Q283.97 31.18 285.8 33.4Q287.62 35.62 287.62 38.36Q287.62 40.52 286.54 41.89Q285.46 43.26 283.18 43.26Q281.35 43.26 280.5 42.41Q279.64 41.55 279.13 40.41Q278.62 39.27 277.93 38.41Q277.25 37.56 275.65 37.56Q273.6 37.56 271.78 40.01Q269.95 42.46 268.75 46.57Q267.56 50.67 267.56 55.91V82.36Q267.56 84.76 268.3 85.78Q269.04 86.81 271.43 87.04L274.51 87.38Q275.77 87.61 275.77 88.63Q275.77 90 274.06 90H254.79Q253.08 90 253.08 88.75Q253.08 87.72 254.56 87.38L255.93 87.15Q258.32 86.69 259.06 85.72Q259.81 84.76 259.81 82.36V44.06Q259.81 42.01 259.18 41.27Q258.55 40.52 256.96 40.3L254.56 39.95Q253.08 39.84 253.08 38.7Q253.08 37.79 254.9 37.45Q258.44 36.88 260.32 35.62Q262.2 34.37 264.25 32.54Q265.28 31.52 265.96 31.52Q266.99 31.52 266.99 32.89V39.04Q266.99 39.84 267.67 40.01Q268.36 40.18 268.93 39.16ZM290.7 90Q289.33 90 289.33 88.75Q289.33 87.61 290.59 87.38L292.18 87.15Q294.58 86.81 295.32 85.78Q296.06 84.76 296.06 82.36V17.04Q296.06 14.99 295.43 14.25Q294.8 13.51 293.21 13.28L290.81 12.94Q289.56 12.71 289.56 11.57Q289.56 10.43 290.81 10.2Q294.01 9.52 296.17 8.6Q298.34 7.69 299.82 6.78Q301.64 5.64 302.56 5.64Q303.81 5.64 303.81 7.46V55.23Q303.81 56.37 304.78 56.66Q305.75 56.94 306.66 55.91L320 41.55Q322.39 38.93 321.99 37.16Q321.59 35.39 319.31 34.94L316.69 34.48Q315.21 34.14 315.21 33Q315.21 31.86 316.81 31.86H336.41Q338.01 31.86 338.01 33.11Q338.01 34.37 336.53 34.48L335.5 34.6Q332.88 34.82 330.26 36.59Q327.64 38.36 323.99 42.12L316.92 49.64Q314.53 52.27 315.78 54.77L330.14 82.36Q331.4 84.64 332.88 85.67Q334.36 86.69 336.53 87.15L337.67 87.38Q339.04 87.72 339.04 88.75Q339.04 90 337.44 90H317.6Q316.01 90 316.01 88.75Q316.01 87.61 317.49 87.38L319.43 87.15Q323.76 86.58 321.25 81.56L310.42 60.47Q309.85 59.33 308.77 59.22Q307.69 59.11 306.77 60.02L305.52 61.27Q304.49 62.3 304.15 63.32Q303.81 64.35 303.81 65.6V82.36Q303.81 84.76 304.55 85.78Q305.29 86.81 307.69 87.04L310.76 87.38Q312.02 87.61 312.02 88.75Q312.02 90 310.65 90ZM373.35 91.03Q370.73 91.03 367.76 90.4Q364.8 89.77 362.98 88.86Q361.95 88.29 361.95 86.92L361.61 74.15Q361.61 72.22 363.09 72.22Q364.34 72.22 364.8 74.04Q366.74 82.13 369.53 85.1Q372.32 88.06 376.31 88.06Q379.62 88.06 381.79 85.5Q383.95 82.93 383.95 78.37Q383.95 73.81 381.44 70.28Q378.94 66.74 373.01 62.53Q367.08 58.54 364.34 54.49Q361.61 50.44 361.61 45.65Q361.61 39.16 366.17 35.17Q370.73 31.18 378.25 31.18Q380.53 31.18 382.7 31.69Q384.86 32.2 386.57 33.34Q387.6 34.03 387.6 35.17L387.83 47.71Q387.83 49.42 386.46 49.42Q385.66 49.42 385.32 48.9Q384.98 48.39 384.75 47.59Q382.47 40.18 380.19 37.27Q377.91 34.37 374.6 34.37Q371.64 34.37 369.7 36.42Q367.76 38.47 367.76 41.55Q367.76 45.54 370.16 48.5Q372.55 51.47 378.82 55.8Q384.52 59.9 387.43 64.63Q390.34 69.37 390.34 74.95Q390.34 82.25 385.66 86.64Q380.99 91.03 373.35 91.03ZM410.29 91.03Q406.3 91.03 403.73 88.23Q401.17 85.44 401.17 79.06V36.42Q401.17 35.05 399.8 35.05H396.49Q394.67 35.05 394.67 33.68Q394.67 32.77 395.69 32.09Q399.46 29.47 401.74 26.44Q404.02 23.42 405.73 18.18Q406.52 15.79 407.66 15.79Q408.92 15.79 408.92 17.61V30.26Q408.92 31.86 410.51 31.86H417.92Q419.75 31.86 419.75 33.46Q419.75 35.05 417.92 35.05H410.51Q408.92 35.05 408.92 36.65V79.17Q408.92 81.68 409.72 83.1Q410.51 84.53 412.68 84.53Q415.07 84.53 416.61 82.13Q418.15 79.74 418.61 74.38Q418.84 72.79 420.09 72.79Q421.46 72.79 421.46 74.5Q421.12 83.27 417.87 87.15Q414.62 91.03 410.29 91.03ZM436.73 91.03Q431.95 91.03 428.87 88Q425.79 84.98 425.79 79.97Q425.79 75.07 428.87 70.68Q431.95 66.29 437.3 62.75Q442.66 59.22 449.5 57.05Q450.98 56.6 450.98 55.12V44.74Q450.98 39.27 449.27 36.93Q447.56 34.6 444.6 34.6Q441.75 34.6 439.41 37.16Q437.08 39.73 436.05 45.77Q435.48 49.42 433.6 51.07Q431.72 52.72 429.78 52.72Q426.59 52.72 426.59 49.53Q426.59 46.22 428.47 42.97Q430.35 39.73 433.43 37.05Q436.51 34.37 440.15 32.77Q443.8 31.18 447.45 31.18Q458.74 31.18 458.74 44.29V79.17Q458.74 83.96 461.13 83.96Q462.61 83.96 463.87 81.96Q465.12 79.97 465.12 75.18Q465.12 73.36 466.6 73.36Q467.97 73.36 467.97 75.29Q467.97 83.62 465.06 87.32Q462.16 91.03 458.51 91.03Q455.77 91.03 454.18 88.8Q452.58 86.58 452.01 83.5Q451.9 82.36 451.04 82.31Q450.19 82.25 449.39 83.39Q446.65 87.15 443.8 89.09Q440.95 91.03 436.73 91.03ZM439.81 85.78Q442.78 85.78 445.28 83.67Q447.79 81.56 449.39 78.03Q450.98 74.5 450.98 70.05V61.73Q450.98 59.56 448.59 60.47Q441.64 62.98 437.82 67.37Q434 71.76 434 77.92Q434 85.78 439.81 85.78ZM486.1 39.16Q490.77 31.18 497.38 31.18Q501.14 31.18 502.97 33.4Q504.79 35.62 504.79 38.36Q504.79 40.52 503.71 41.89Q502.63 43.26 500.35 43.26Q498.52 43.26 497.67 42.41Q496.81 41.55 496.3 40.41Q495.79 39.27 495.1 38.41Q494.42 37.56 492.82 37.56Q490.77 37.56 488.95 40.01Q487.12 42.46 485.93 46.57Q484.73 50.67 484.73 55.91V82.36Q484.73 84.76 485.47 85.78Q486.21 86.81 488.6 87.04L491.68 87.38Q492.94 87.61 492.94 88.63Q492.94 90 491.23 90H471.96Q470.25 90 470.25 88.75Q470.25 87.72 471.73 87.38L473.1 87.15Q475.49 86.69 476.24 85.72Q476.98 84.76 476.98 82.36V44.06Q476.98 42.01 476.35 41.27Q475.72 40.52 474.13 40.3L471.73 39.95Q470.25 39.84 470.25 38.7Q470.25 37.79 472.07 37.45Q475.61 36.88 477.49 35.62Q479.37 34.37 481.42 32.54Q482.45 31.52 483.13 31.52Q484.16 31.52 484.16 32.89V39.04Q484.16 39.84 484.84 40.01Q485.53 40.18 486.1 39.16ZM521.55 91.03Q517.56 91.03 515 88.23Q512.43 85.44 512.43 79.06V36.42Q512.43 35.05 511.06 35.05H507.76Q505.93 35.05 505.93 33.68Q505.93 32.77 506.96 32.09Q510.72 29.47 513 26.44Q515.28 23.42 516.99 18.18Q517.79 15.79 518.93 15.79Q520.18 15.79 520.18 17.61V30.26Q520.18 31.86 521.78 31.86H529.19Q531.01 31.86 531.01 33.46Q531.01 35.05 529.19 35.05H521.78Q520.18 35.05 520.18 36.65V79.17Q520.18 81.68 520.98 83.1Q521.78 84.53 523.94 84.53Q526.34 84.53 527.88 82.13Q529.42 79.74 529.87 74.38Q530.1 72.79 531.35 72.79Q532.72 72.79 532.72 74.5Q532.38 83.27 529.13 87.15Q525.88 91.03 521.55 91.03ZM549.25 91.03Q546.63 91.03 543.67 90.4Q540.7 89.77 538.88 88.86Q537.85 88.29 537.85 86.92L537.51 74.15Q537.51 72.22 538.99 72.22Q540.25 72.22 540.7 74.04Q542.64 82.13 545.43 85.1Q548.23 88.06 552.22 88.06Q555.52 88.06 557.69 85.5Q559.85 82.93 559.85 78.37Q559.85 73.81 557.35 70.28Q554.84 66.74 548.91 62.53Q542.98 58.54 540.25 54.49Q537.51 50.44 537.51 45.65Q537.51 39.16 542.07 35.17Q546.63 31.18 554.15 31.18Q556.43 31.18 558.6 31.69Q560.77 32.2 562.48 33.34Q563.5 34.03 563.5 35.17L563.73 47.71Q563.73 49.42 562.36 49.42Q561.56 49.42 561.22 48.9Q560.88 48.39 560.65 47.59Q558.37 40.18 556.09 37.27Q553.81 34.37 550.51 34.37Q547.54 34.37 545.6 36.42Q543.67 38.47 543.67 41.55Q543.67 45.54 546.06 48.5Q548.45 51.47 554.72 55.8Q560.42 59.9 563.33 64.63Q566.24 69.37 566.24 74.95Q566.24 82.25 561.56 86.64Q556.89 91.03 549.25 91.03ZM610.13 91.03Q608.65 91.03 608.08 88.75L594.28 39.5Q593.48 36.76 592.74 35.96Q592 35.17 590.41 34.82L588.7 34.48Q587.21 34.14 587.21 33Q587.21 31.86 588.81 31.86H607.28Q608.87 31.86 608.87 33Q608.87 34.25 607.39 34.48L605.57 34.71Q602.83 35.05 602.15 36.02Q601.46 36.99 602.15 39.5L611.15 72.67Q611.5 73.81 612.24 73.81Q612.98 73.81 613.32 72.67L621.07 43.15Q621.3 42.23 621.36 41.32Q621.41 40.41 621.07 39.38Q620.27 36.65 619.53 35.91Q618.79 35.17 617.2 34.82L615.49 34.48Q614 34.14 614 33Q614 31.86 615.6 31.86H634.07Q635.66 31.86 635.66 33Q635.66 34.25 634.18 34.48L632.36 34.71Q629.62 35.05 629.05 36.02Q628.48 36.99 628.94 39.5L636.23 72.44Q636.46 73.58 637.2 73.58Q637.94 73.58 638.29 72.44L646.95 41.55Q647.86 38.47 647.46 36.93Q647.06 35.39 644.21 34.94L641.82 34.48Q640.34 34.14 640.34 33Q640.34 31.86 641.93 31.86H656.18Q657.78 31.86 657.78 33.11Q657.78 34.25 656.41 34.71L655.39 35.05Q653.68 35.62 652.42 37.1Q651.17 38.59 650.14 42.23L637.15 88.75Q636.58 91.03 634.98 91.03Q633.61 91.03 633.04 88.75L624.15 52.27Q623.81 51.01 623.07 50.95Q622.33 50.9 621.98 52.27L612.18 88.75Q611.61 91.03 610.13 91.03ZM659.03 90Q657.67 90 657.67 88.75Q657.67 87.61 658.92 87.38L660.52 87.15Q662.91 86.81 663.65 85.78Q664.39 84.76 664.39 82.36V17.04Q664.39 14.99 663.76 14.25Q663.14 13.51 661.54 13.28L659.15 12.94Q657.89 12.71 657.89 11.57Q657.89 10.43 659.15 10.2Q662.34 9.52 664.51 8.6Q666.67 7.69 668.15 6.78Q669.98 5.64 670.89 5.64Q672.14 5.64 672.14 7.46V37.67Q672.14 38.7 672.83 38.87Q673.51 39.04 674.54 38.13Q678.87 34.14 682.18 32.66Q685.48 31.18 689.13 31.18Q694.49 31.18 697.57 34.77Q700.64 38.36 700.64 45.31V82.36Q700.64 84.76 701.38 85.72Q702.13 86.69 704.52 87.04L707.03 87.38Q708.28 87.61 708.28 88.75Q708.28 90 706.91 90H687.76Q686.17 90 686.17 88.75Q686.17 87.61 687.42 87.38L689.02 87.15Q691.41 86.81 692.15 85.78Q692.89 84.76 692.89 82.36V46.57Q692.89 40.98 690.84 38.7Q688.79 36.42 685.03 36.42Q681.38 36.42 678.47 38.53Q675.56 40.64 673.85 44.11Q672.14 47.59 672.14 51.81V82.36Q672.14 84.76 672.88 85.78Q673.63 86.81 676.02 87.04L679.1 87.38Q680.35 87.61 680.35 88.75Q680.35 90 678.98 90ZM731.42 91.03Q725.95 91.03 721.62 87.38Q717.29 83.73 714.72 77.06Q712.16 70.39 712.16 61.61Q712.16 52.61 714.78 45.77Q717.4 38.93 721.96 35.05Q726.52 31.18 732.11 31.18Q738.83 31.18 742.99 36.7Q747.16 42.23 747.16 54.66Q747.16 58.42 744.31 58.42H722.65Q720.37 58.42 720.37 61.04Q720.37 73.13 723.9 79.17Q727.43 85.21 732.91 85.21Q737.24 85.21 739.97 82.13Q742.71 79.06 744.42 71.76Q744.76 70.51 745.9 70.51Q747.27 70.51 746.93 72.79Q745.1 82.93 741.11 86.98Q737.12 91.03 731.42 91.03ZM722.3 55.57H733.82Q739.29 55.57 739.29 49.87Q739.29 42.46 737.47 38.24Q735.64 34.03 731.99 34.03Q727.55 34.03 724.53 39.16Q721.51 44.29 720.59 53.75Q720.37 55.57 722.3 55.57ZM767.56 39.16Q772.24 31.18 778.85 31.18Q782.61 31.18 784.43 33.4Q786.26 35.62 786.26 38.36Q786.26 40.52 785.17 41.89Q784.09 43.26 781.81 43.26Q779.99 43.26 779.13 42.41Q778.28 41.55 777.76 40.41Q777.25 39.27 776.57 38.41Q775.88 37.56 774.29 37.56Q772.24 37.56 770.41 40.01Q768.59 42.46 767.39 46.57Q766.19 50.67 766.19 55.91V82.36Q766.19 84.76 766.93 85.78Q767.68 86.81 770.07 87.04L773.15 87.38Q774.4 87.61 774.4 88.63Q774.4 90 772.69 90H753.43Q751.72 90 751.72 88.75Q751.72 87.72 753.2 87.38L754.57 87.15Q756.96 86.69 757.7 85.72Q758.44 84.76 758.44 82.36V44.06Q758.44 42.01 757.82 41.27Q757.19 40.52 755.59 40.3L753.2 39.95Q751.72 39.84 751.72 38.7Q751.72 37.79 753.54 37.45Q757.07 36.88 758.95 35.62Q760.84 34.37 762.89 32.54Q763.91 31.52 764.6 31.52Q765.62 31.52 765.62 32.89V39.04Q765.62 39.84 766.31 40.01Q766.99 40.18 767.56 39.16ZM808.15 91.03Q802.67 91.03 798.34 87.38Q794.01 83.73 791.44 77.06Q788.88 70.39 788.88 61.61Q788.88 52.61 791.5 45.77Q794.12 38.93 798.68 35.05Q803.24 31.18 808.83 31.18Q815.56 31.18 819.72 36.7Q823.88 42.23 823.88 54.66Q823.88 58.42 821.03 58.42H799.37Q797.09 58.42 797.09 61.04Q797.09 73.13 800.62 79.17Q804.16 85.21 809.63 85.21Q813.96 85.21 816.7 82.13Q819.43 79.06 821.14 71.76Q821.48 70.51 822.62 70.51Q823.99 70.51 823.65 72.79Q821.83 82.93 817.84 86.98Q813.85 91.03 808.15 91.03ZM799.03 55.57H810.54Q816.01 55.57 816.01 49.87Q816.01 42.46 814.19 38.24Q812.36 34.03 808.72 34.03Q804.27 34.03 801.25 39.16Q798.23 44.29 797.32 53.75Q797.09 55.57 799.03 55.57Z"/>
<path fill="#F0EEE8" d="M251.76 219.03Q247.77 219.03 245.2 216.23Q242.64 213.44 242.64 207.06V164.42Q242.64 163.05 241.27 163.05H237.96Q236.14 163.05 236.14 161.68Q236.14 160.77 237.17 160.09Q240.93 157.47 243.21 154.44Q245.49 151.42 247.2 146.18Q248 143.79 249.14 143.79Q250.39 143.79 250.39 145.61V158.26Q250.39 159.86 251.99 159.86H259.4Q261.22 159.86 261.22 161.46Q261.22 163.05 259.4 163.05H251.99Q250.39 163.05 250.39 164.65V207.17Q250.39 209.68 251.19 211.1Q251.99 212.53 254.15 212.53Q256.55 212.53 258.09 210.13Q259.62 207.74 260.08 202.38Q260.31 200.79 261.56 200.79Q262.93 200.79 262.93 202.5Q262.59 211.27 259.34 215.15Q256.09 219.03 251.76 219.03ZM267.6 218Q266.24 218 266.24 216.75Q266.24 215.61 267.49 215.38L269.09 215.15Q271.48 214.81 272.22 213.78Q272.96 212.76 272.96 210.36V145.04Q272.96 142.99 272.34 142.25Q271.71 141.51 270.11 141.28L267.72 140.94Q266.46 140.71 266.46 139.57Q266.46 138.43 267.72 138.2Q270.91 137.52 273.08 136.6Q275.24 135.69 276.72 134.78Q278.55 133.64 279.46 133.64Q280.71 133.64 280.71 135.46V165.67Q280.71 166.7 281.4 166.87Q282.08 167.04 283.11 166.13Q287.44 162.14 290.75 160.66Q294.05 159.18 297.7 159.18Q303.06 159.18 306.14 162.77Q309.21 166.36 309.21 173.31V210.36Q309.21 212.76 309.96 213.72Q310.7 214.69 313.09 215.04L315.6 215.38Q316.85 215.61 316.85 216.75Q316.85 218 315.48 218H296.33Q294.74 218 294.74 216.75Q294.74 215.61 295.99 215.38L297.59 215.15Q299.98 214.81 300.72 213.78Q301.46 212.76 301.46 210.36V174.57Q301.46 168.98 299.41 166.7Q297.36 164.42 293.6 164.42Q289.95 164.42 287.04 166.53Q284.13 168.64 282.42 172.12Q280.71 175.59 280.71 179.81V210.36Q280.71 212.76 281.46 213.78Q282.2 214.81 284.59 215.04L287.67 215.38Q288.92 215.61 288.92 216.75Q288.92 218 287.55 218ZM339.99 219.03Q334.52 219.03 330.19 215.38Q325.86 211.73 323.29 205.06Q320.73 198.39 320.73 189.61Q320.73 180.61 323.35 173.77Q325.97 166.93 330.53 163.05Q335.09 159.18 340.68 159.18Q347.4 159.18 351.56 164.7Q355.73 170.23 355.73 182.66Q355.73 186.42 352.88 186.42H331.22Q328.94 186.42 328.94 189.04Q328.94 201.13 332.47 207.17Q336 213.21 341.48 213.21Q345.81 213.21 348.54 210.13Q351.28 207.06 352.99 199.76Q353.33 198.51 354.47 198.51Q355.84 198.51 355.5 200.79Q353.67 210.93 349.68 214.98Q345.69 219.03 339.99 219.03ZM330.87 183.57H342.39Q347.86 183.57 347.86 177.87Q347.86 170.46 346.04 166.24Q344.21 162.03 340.56 162.03Q336.12 162.03 333.1 167.16Q330.08 172.29 329.16 181.75Q328.94 183.57 330.87 183.57ZM381.03 241.37Q379.32 241.37 379.32 240.12Q379.32 238.86 380.81 238.75L382.4 238.52Q384.8 238.18 385.54 237.15Q386.28 236.13 386.28 233.73V172.06Q386.28 170.01 385.65 169.26Q385.02 168.52 383.43 168.3L381.03 167.95Q379.55 167.84 379.55 166.7Q379.55 165.79 381.38 165.45Q384.91 164.88 386.79 163.62Q388.67 162.37 390.72 160.54Q391.75 159.52 392.43 159.52Q393.46 159.52 393.46 160.89V164.42Q393.46 165.22 394.14 165.5Q394.83 165.79 395.74 164.88L396.99 163.62Q399.27 161.34 401.67 160.26Q404.06 159.18 407.14 159.18Q412.38 159.18 416.43 162.65Q420.48 166.13 422.82 172.29Q425.15 178.44 425.15 186.76Q425.15 196.23 422.19 203.52Q419.22 210.82 414.04 214.92Q408.85 219.03 402.12 219.03Q398.7 219.03 396.08 217.77Q394.03 216.86 394.03 219.03V233.73Q394.03 236.13 394.77 236.98Q395.51 237.84 397.91 238.18L402.12 238.75Q403.38 238.98 403.38 240Q403.38 241.37 401.67 241.37ZM402.47 216.18Q408.85 216.18 412.78 208.65Q416.72 201.13 416.72 188.36Q416.72 176.62 413.3 170.46Q409.88 164.31 403.61 164.31Q399.73 164.31 396.88 167.5Q394.03 170.69 394.03 176.39V205.12Q394.03 210.25 396.37 213.21Q398.7 216.18 402.47 216.18ZM430.85 218Q429.48 218 429.48 216.75Q429.48 215.61 430.74 215.38L432.33 215.15Q434.73 214.81 435.87 213.78Q437.01 212.76 437.01 210.36V145.04Q437.01 142.99 436.38 142.19Q435.75 141.39 434.16 141.28L431.54 140.94Q430.28 140.71 430.28 139.57Q430.28 138.43 431.54 138.2Q434.73 137.52 437.01 136.6Q439.29 135.69 440.77 134.78Q442.59 133.64 443.51 133.64Q444.76 133.64 444.76 135.46V210.36Q444.76 212.76 445.5 213.72Q446.24 214.69 448.64 215.04L451.26 215.38Q452.51 215.61 452.51 216.75Q452.51 218 451.14 218ZM467.33 219.03Q462.54 219.03 459.47 216Q456.39 212.98 456.39 207.97Q456.39 203.07 459.47 198.68Q462.54 194.29 467.9 190.75Q473.26 187.22 480.1 185.05Q481.58 184.6 481.58 183.12V172.74Q481.58 167.27 479.87 164.93Q478.16 162.6 475.2 162.6Q472.35 162.6 470.01 165.16Q467.67 167.73 466.65 173.77Q466.08 177.42 464.2 179.07Q462.32 180.72 460.38 180.72Q457.19 180.72 457.19 177.53Q457.19 174.22 459.07 170.97Q460.95 167.73 464.03 165.05Q467.1 162.37 470.75 160.77Q474.4 159.18 478.05 159.18Q489.33 159.18 489.33 172.29V207.17Q489.33 211.96 491.73 211.96Q493.21 211.96 494.46 209.96Q495.72 207.97 495.72 203.18Q495.72 201.36 497.2 201.36Q498.57 201.36 498.57 203.29Q498.57 211.62 495.66 215.32Q492.75 219.03 489.11 219.03Q486.37 219.03 484.77 216.8Q483.18 214.58 482.61 211.5Q482.49 210.36 481.64 210.31Q480.78 210.25 479.99 211.39Q477.25 215.15 474.4 217.09Q471.55 219.03 467.33 219.03ZM470.41 213.78Q473.37 213.78 475.88 211.67Q478.39 209.56 479.99 206.03Q481.58 202.5 481.58 198.05V189.73Q481.58 187.56 479.19 188.47Q472.23 190.98 468.41 195.37Q464.6 199.76 464.6 205.92Q464.6 213.78 470.41 213.78ZM506.55 241.37Q503.47 241.37 501.65 239.26Q499.82 237.15 499.82 234.42Q499.82 232.25 501.08 230.77Q502.33 229.29 504.5 229.29Q506.32 229.29 507.12 230.08Q507.92 230.88 508.26 231.91Q508.6 232.93 508.94 233.73Q509.28 234.53 510.31 234.53Q511.56 234.53 512.59 232.76Q513.62 231 515.44 225.3Q516.58 221.88 516.87 219.37Q517.15 216.86 516.75 214.01Q516.35 211.16 514.98 207.06L502.56 167.5Q501.76 164.76 501.02 163.96Q500.28 163.17 498.68 162.82L496.97 162.48Q495.49 162.14 495.49 161Q495.49 159.86 497.09 159.86H515.9Q517.49 159.86 517.49 161Q517.49 162.25 516.01 162.48L514.19 162.71Q511.45 163.05 510.71 164.02Q509.97 164.99 510.77 167.5L520.8 200.9Q521.14 202.04 521.88 202.04Q522.62 202.04 522.96 200.9L532.65 169.55Q533.57 166.47 533.17 164.93Q532.77 163.39 529.92 162.94L527.52 162.48Q526.04 162.14 526.04 161Q526.04 159.86 527.64 159.86H542.12Q543.71 159.86 543.71 161.11Q543.71 162.25 542.34 162.71L541.32 163.05Q539.61 163.62 538.47 165.1Q537.33 166.59 536.07 170.23L519.09 223.24Q516.58 231.22 514.58 235.1Q512.59 238.98 510.77 240.17Q508.94 241.37 506.55 241.37ZM565.37 219.03Q560.7 219.03 556.37 216.06Q553.86 214.35 551.81 216.97Q550.67 218.23 550.1 218.63Q549.53 219.03 548.96 219.03Q547.7 219.03 548.04 217.43Q548.5 214.81 548.73 210.7Q548.96 206.6 548.96 199.76V145.04Q548.96 142.99 548.33 142.25Q547.7 141.51 546.11 141.28L543.71 140.94Q542.46 140.71 542.46 139.57Q542.46 138.43 543.71 138.2Q546.9 137.52 549.07 136.6Q551.24 135.69 552.72 134.78Q554.54 133.64 555.45 133.64Q556.71 133.64 556.71 135.46V163.62Q556.71 164.53 557.45 164.82Q558.19 165.1 559.1 164.19Q564 159.18 569.82 159.18Q575.06 159.18 579.11 162.65Q583.16 166.13 585.49 172.29Q587.83 178.44 587.83 186.76Q587.83 196.23 584.87 203.52Q581.9 210.82 576.83 214.92Q571.76 219.03 565.37 219.03ZM565.14 216.18Q571.53 216.18 575.46 208.65Q579.39 201.13 579.39 188.36Q579.39 176.62 575.97 170.46Q572.55 164.31 566.28 164.31Q562.41 164.31 559.56 167.5Q556.71 170.69 556.71 176.39V205.12Q556.71 210.25 559.04 213.21Q561.38 216.18 565.14 216.18ZM615.53 219.03Q609.72 219.03 605.1 215.09Q600.48 211.16 597.75 204.32Q595.01 197.48 595.01 189.04Q595.01 180.61 597.75 173.88Q600.48 167.16 605.16 163.17Q609.83 159.18 615.53 159.18Q621.35 159.18 625.96 163.17Q630.58 167.16 633.32 173.88Q636.05 180.61 636.05 189.04Q636.05 197.48 633.37 204.32Q630.69 211.16 626.02 215.09Q621.35 219.03 615.53 219.03ZM615.53 216.18Q627.39 216.18 627.39 189.04Q627.39 162.03 615.53 162.03Q603.68 162.03 603.68 189.04Q603.68 216.18 615.53 216.18ZM662.04 219.03Q656.23 219.03 651.61 215.09Q647 211.16 644.26 204.32Q641.52 197.48 641.52 189.04Q641.52 180.61 644.26 173.88Q647 167.16 651.67 163.17Q656.34 159.18 662.04 159.18Q667.86 159.18 672.47 163.17Q677.09 167.16 679.83 173.88Q682.56 180.61 682.56 189.04Q682.56 197.48 679.88 204.32Q677.21 211.16 672.53 215.09Q667.86 219.03 662.04 219.03ZM662.04 216.18Q673.9 216.18 673.9 189.04Q673.9 162.03 662.04 162.03Q650.19 162.03 650.19 189.04Q650.19 216.18 662.04 216.18ZM688.49 218Q687.12 218 687.12 216.75Q687.12 215.61 688.38 215.38L689.97 215.15Q692.37 214.81 693.11 213.78Q693.85 212.76 693.85 210.36V145.04Q693.85 142.99 693.22 142.25Q692.6 141.51 691 141.28L688.61 140.94Q687.35 140.71 687.35 139.57Q687.35 138.43 688.61 138.2Q691.8 137.52 693.96 136.6Q696.13 135.69 697.61 134.78Q699.44 133.64 700.35 133.64Q701.6 133.64 701.6 135.46V183.23Q701.6 184.37 702.57 184.66Q703.54 184.94 704.45 183.91L717.79 169.55Q720.18 166.93 719.78 165.16Q719.39 163.39 717.11 162.94L714.48 162.48Q713 162.14 713 161Q713 159.86 714.6 159.86H734.21Q735.8 159.86 735.8 161.11Q735.8 162.37 734.32 162.48L733.29 162.6Q730.67 162.82 728.05 164.59Q725.43 166.36 721.78 170.12L714.71 177.64Q712.32 180.27 713.57 182.77L727.94 210.36Q729.19 212.64 730.67 213.67Q732.15 214.69 734.32 215.15L735.46 215.38Q736.83 215.72 736.83 216.75Q736.83 218 735.23 218H715.4Q713.8 218 713.8 216.75Q713.8 215.61 715.28 215.38L717.22 215.15Q721.55 214.58 719.04 209.56L708.21 188.47Q707.64 187.33 706.56 187.22Q705.48 187.11 704.57 188.02L703.31 189.27Q702.29 190.3 701.94 191.32Q701.6 192.35 701.6 193.6V210.36Q701.6 212.76 702.34 213.78Q703.08 214.81 705.48 215.04L708.56 215.38Q709.81 215.61 709.81 216.75Q709.81 218 708.44 218Z"/>
<path fill="#E7A385" d="M772.91 219.03Q766.87 219.03 763.22 214.3Q759.58 209.56 759.58 200.9Q759.58 193.38 762.25 185.97Q764.93 178.56 769.27 172.51Q773.6 166.47 778.78 162.82Q783.97 159.18 788.87 159.18Q794.23 159.18 796.57 161.74Q798.91 164.31 798.91 168.64Q798.91 173.77 795.31 178.84Q791.72 183.91 785.28 187.9Q778.84 191.89 770.18 193.83Q767.67 194.4 767.56 196.68Q767.44 197.48 767.44 198.33Q767.44 199.19 767.44 199.99Q767.44 206.49 769.66 209.79Q771.89 213.1 775.76 213.1Q780.1 213.1 784.14 209.11Q788.19 205.12 790.93 197.82Q791.27 196.8 792.29 196.8Q792.98 196.8 793.15 197.37Q793.32 197.94 793.09 198.73Q789.44 208.77 784.26 213.9Q779.07 219.03 772.91 219.03ZM768.7 189.5Q768.47 190.3 768.98 190.81Q769.49 191.32 770.29 191.1Q777.36 189.16 782.15 185.22Q786.94 181.29 789.39 176.39Q791.84 171.49 791.84 166.81Q791.84 162.03 788.08 162.03Q784.77 162.03 780.89 165.9Q777.02 169.78 773.71 176.05Q770.41 182.32 768.7 189.5ZM803.92 216.52 814.75 171.03Q815.32 168.52 814.92 167.1Q814.52 165.67 812.81 165.67Q810.76 165.67 808.31 168.69Q805.86 171.72 802.78 180.15Q802.33 181.63 801.19 181.63Q799.48 181.63 800.27 179.58Q802.78 171.72 805.57 167.27Q808.37 162.82 811.22 161Q814.07 159.18 816.46 159.18Q820.22 159.18 821.82 161.97Q823.42 164.76 821.93 171.15L819.08 183.46Q818.97 184.26 819.43 184.37Q819.88 184.48 820.22 183.8Q824.67 174.57 828.77 169.15Q832.88 163.74 836.53 161.46Q840.17 159.18 843.14 159.18Q847.36 159.18 849.29 162.6Q851.23 166.02 849.29 173.08L840.63 206.14Q839.83 209.34 840.52 210.93Q841.2 212.53 843.02 212.53Q845.3 212.53 847.53 209.51Q849.75 206.49 852.14 198.05Q852.49 196.8 853.63 196.8Q854.54 196.8 854.71 197.48Q854.88 198.16 854.65 199.08Q852.49 206.83 849.98 211.22Q847.47 215.61 844.9 217.32Q842.34 219.03 839.72 219.03Q835.61 219.03 833.56 215.61Q831.51 212.19 833.33 205L842.11 171.94Q843.37 167.5 842.51 165.79Q841.66 164.08 840.06 164.08Q837.55 164.08 834.36 167.21Q831.17 170.35 827.86 175.76Q824.56 181.18 821.36 188.02Q818.17 194.86 815.61 202.27Q813.04 209.68 811.45 216.75Q811.1 218 809.85 218H805.18Q803.58 218 803.92 216.52ZM867.53 219.03Q863.32 219.03 861.04 215.49Q858.76 211.96 858.76 205.12Q858.76 198.62 860.58 192.06Q862.4 185.51 865.6 179.58Q868.79 173.65 872.83 169.09Q876.88 164.53 881.38 161.85Q885.89 159.18 890.33 159.18Q893.41 159.18 895.69 160.77Q897.29 161.8 897.63 160.09L901.28 145.04Q901.85 142.99 901.33 142.19Q900.82 141.39 899.23 141.28L895.81 140.94Q894.1 140.82 894.32 139.45Q894.55 138.43 895.92 138.2Q900.02 137.52 903.22 136.55Q906.41 135.58 908.35 133.98Q909.26 133.3 910.06 133.3Q911.42 133.3 911.08 135.01L894.89 205.12Q893.18 212.53 897.17 212.53Q899.8 212.53 901.9 208.99Q904.01 205.46 906.18 198.05Q906.52 196.8 907.66 196.8Q908.46 196.8 908.69 197.48Q908.92 198.16 908.69 199.08Q906.52 209.79 902.7 214.41Q898.88 219.03 893.75 219.03Q889.31 219.03 887.43 215.26Q885.55 211.5 887.03 205L888.28 199.76Q888.51 198.96 888 198.85Q887.48 198.73 887.14 199.42Q881.67 210.13 876.77 214.58Q871.87 219.03 867.53 219.03ZM870.27 213.21Q873.01 213.21 876.31 209.91Q879.62 206.6 882.87 201.36Q886.12 196.11 888.85 190.07Q891.59 184.03 893.24 178.44Q894.89 172.86 894.89 168.98Q894.89 162.03 889.99 162.03Q887.03 162.03 883.72 164.71Q880.42 167.38 877.39 171.94Q874.37 176.5 871.92 182.26Q869.47 188.02 867.99 194.23Q866.51 200.44 866.51 206.37Q866.51 210.36 867.59 211.79Q868.67 213.21 870.27 213.21ZM924.53 219.03Q920.77 219.03 916.61 217.89Q912.45 216.75 910.28 215.04Q909.49 214.35 909.6 212.98L912.11 198.05Q912.34 196.57 913.48 196.57Q914.73 196.57 914.73 198.16L914.96 203.64Q915.19 210.13 918.09 213.15Q921 216.18 925.22 216.18Q928.87 216.18 931.49 213.84Q934.11 211.5 934.11 206.94Q934.11 204.32 933.31 202.1Q932.51 199.87 930.8 197.31Q929.09 194.74 926.13 191.1Q922.25 186.08 920.37 182.49Q918.49 178.9 918.49 175.02Q918.49 167.84 922.99 163.51Q927.5 159.18 934.45 159.18Q937.53 159.18 940.44 160.09Q943.34 161 945.28 162.82Q946.31 163.62 945.97 164.88L942.77 180.15Q942.43 181.63 941.41 181.63Q940.38 181.63 940.15 180.04L939.81 174.57Q939.35 167.73 938.04 164.76Q936.73 161.8 932.63 161.8Q928.98 161.8 926.7 164.31Q924.42 166.81 924.42 170.35Q924.42 174.11 926.47 177.25Q928.52 180.38 932.06 185.17Q936.73 191.32 938.38 194.97Q940.04 198.62 940.04 202.38Q940.04 207.17 937.93 210.93Q935.82 214.69 932.29 216.86Q928.75 219.03 924.53 219.03ZM952.81 219.03Q950.41 219.03 948.93 217.49Q947.45 215.95 947.45 213.67Q947.45 210.7 949.5 208.88Q951.55 207.06 953.83 207.06Q956.11 207.06 957.65 208.59Q959.19 210.13 959.19 212.41Q959.19 215.38 957.14 217.2Q955.09 219.03 952.81 219.03Z"/>
</svg>
